{
.appVersion = "3151";
.formatVersion = 3;
DisplayStrings = (
"ABEGHINOPSVY
abeghinopsvy"
);
date = "2023-01-30 15:35:42 +0000";
familyName = "AM 002";
fontMaster = (
{
customParameters = (
{
name = paramArea;
value = 273;
},
{
name = paramDepth;
value = 16;
}
);
id = m01;
metricValues = (
{
over = 16;
pos = 742;
},
{
over = 16;
pos = 624;
},
{
over = 16;
pos = 414;
},
{
over = -16;
},
{
over = -16;
pos = -266;
},
{
over = -16;
}
);
name = Regular;
}
);
glyphs = (
{
glyphname = A;
lastChange = "2023-01-30 15:53:14 +0000";
layers = (
{
layerId = m01;
shapes = (
{
attr = {
fillColor = (0,255);
};
closed = 1;
nodes = (
(324,643,o),
(263,493,o),
(222,389,c),
(172,265,o),
(107,118,o),
(90,91,c),
(73,65,o),
(48,43,o),
(23,32,c),
(12,28,o),
(5,20,o),
(5,13,c),
(5,4,o),
(11,2,o),
(133,2,c),
(244,2,o),
(263,4,o),
(263,11,c),
(263,16,o),
(250,26,o),
(233,35,c),
(196,54,o),
(184,73,o),
(184,110,c),
(185,139,o),
(205,209,o),
(217,224,c),
(222,229,o),
(247,230,o),
(323,229,c),
(424,228,l),
(449,167,l),
(487,74,o),
(485,59,o),
(429,34,c),
(411,26,o),
(397,17,o),
(397,12,c),
(397,4,o),
(418,2,o),
(547,2,c),
(687,2,o),
(696,4,o),
(696,13,c),
(696,19,o),
(689,26,o),
(677,31,c),
(633,47,o),
(623,66,o),
(461,478,c),
(421,576,o),
(387,664,o),
(382,672,c),
(370,696,o),
(347,694,o),
(336,670,c)
);
},
{
attr = {
fillColor = (0,255);
};
closed = 1;
nodes = (
(407,275,l),
(365,274,l),
(341,272,o),
(301,272,o),
(276,274,c),
(229,275,l),
(247,322,l),
(258,348,o),
(277,398,o),
(292,436,c),
(313,490,o),
(318,499,o),
(323,491,c),
(327,485,o),
(347,434,o),
(369,378,c)
);
}
);
width = 701;
}
);
unicode = 65;
},
{
glyphname = B;
lastChange = "2023-01-30 15:53:14 +0000";
layers = (
{
layerId = m01;
shapes = (
{
attr = {
fillColor = (0,255);
};
closed = 1;
nodes = (
(5,613,o),
(16,604,o),
(50,591,c),
(101,571,o),
(108,555,o),
(108,462,c),
(108,420,o),
(109,331,o),
(112,265,c),
(116,111,o),
(113,81,o),
(88,57,c),
(78,48,o),
(58,36,o),
(43,30,c),
(28,25,o),
(17,16,o),
(16,10,c),
(13,1,o),
(25,1,o),
(199,2,c),
(371,4,o),
(389,6,o),
(419,18,c),
(469,36,o),
(485,45,o),
(520,78,c),
(599,150,o),
(593,247,o),
(506,307,c),
(487,321,o),
(463,332,o),
(442,337,c),
(408,343,l),
(443,364,l),
(511,404,o),
(541,452,o),
(533,507,c),
(523,573,o),
(463,613,o),
(360,622,c),
(272,630,o),
(16,630,o),
(11,622,c)
);
},
{
attr = {
fillColor = (0,255);
};
closed = 1;
nodes = (
(397,553,o),
(413,505,o),
(404,438,c),
(401,411,o),
(396,399,o),
(380,382,c),
(361,362,l),
(302,360,l),
(242,357,l),
(242,470,l),
(242,583,l),
(292,579,l),
(319,578,o),
(350,572,o),
(362,567,c)
);
},
{
attr = {
fillColor = (0,255);
};
closed = 1;
nodes = (
(424,284,o),
(432,264,o),
(436,188,c),
(437,132,o),
(436,122,o),
(425,98,c),
(406,60,o),
(378,48,o),
(302,48,c),
(242,48,l),
(242,180,l),
(242,312,l),
(302,312,l),
(349,312,o),
(368,309,o),
(388,301,c)
);
}
);
width = 596;
}
);
unicode = 66;
},
{
glyphname = E;
lastChange = "2023-01-30 15:53:14 +0000";
layers = (
{
layerId = m01;
shapes = (
{
attr = {
fillColor = (0,255);
};
closed = 1;
nodes = (
(454,641,o),
(413,638,o),
(209,640,c),
(22,641,o),
(16,641,o),
(16,630,c),
(16,623,o),
(23,617,o),
(38,612,c),
(74,599,o),
(94,582,o),
(101,558,c),
(107,534,o),
(110,120,o),
(104,89,c),
(98,64,o),
(76,44,o),
(42,33,c),
(21,26,o),
(12,20,o),
(12,11,c),
(12,0,o),
(20,0,o),
(243,0,c),
(436,0,o),
(476,-1,o),
(490,-9,c),
(524,-26,o),
(522,-27,o),
(534,57,c),
(538,83,o),
(549,129,o),
(557,158,c),
(567,186,o),
(572,213,o),
(569,218,c),
(561,232,o),
(542,218,o),
(509,170,c),
(442,71,o),
(411,53,o),
(311,53,c),
(226,53,o),
(230,47,o),
(230,194,c),
(230,311,l),
(252,311,l),
(311,311,o),
(338,292,o),
(356,238,c),
(366,207,o),
(380,194,o),
(393,202,c),
(396,204,o),
(399,258,o),
(398,330,c),
(396,453,o),
(396,454,o),
(383,456,c),
(372,458,o),
(369,453,o),
(360,436,c),
(339,383,o),
(317,366,o),
(262,360,c),
(230,356,l),
(231,467,l),
(233,578,l),
(303,579,l),
(393,581,o),
(414,574,o),
(446,531,c),
(459,515,o),
(474,490,o),
(482,476,c),
(491,456,o),
(497,452,o),
(507,453,c),
(520,454,o),
(520,455,o),
(519,563,c),
(518,663,o),
(516,671,o),
(507,672,c),
(501,674,o),
(490,669,o),
(482,663,c)
);
}
);
width = 592;
}
);
unicode = 69;
},
{
glyphname = G;
lastChange = "2023-01-30 15:53:14 +0000";
layers = (
{
layerId = m01;
shapes = (
{
attr = {
fillColor = (0,255);
};
closed = 1;
nodes = (
(575,626,o),
(568,625,o),
(454,624,c),
(316,622,o),
(271,614,o),
(196,578,c),
(95,528,o),
(26,416,o),
(26,300,c),
(26,219,o),
(62,135,o),
(119,76,c),
(185,10,o),
(253,-14,o),
(371,-14,c),
(454,-14,o),
(484,-6,o),
(561,31,c),
(650,73,o),
(681,99,o),
(656,109,c),
(649,111,o),
(647,123,o),
(647,163,c),
(647,232,o),
(659,253,o),
(713,271,c),
(729,276,o),
(735,280,o),
(735,289,c),
(735,300,o),
(730,300,o),
(561,298,c),
(407,297,o),
(387,296,o),
(385,288,c),
(383,282,o),
(393,276,o),
(419,267,c),
(464,254,o),
(499,229,o),
(509,204,c),
(520,177,o),
(520,111,o),
(511,91,c),
(472,19,o),
(361,3,o),
(277,58,c),
(248,78,o),
(218,124,o),
(199,181,c),
(185,217,o),
(182,242,o),
(179,298,c),
(173,442,o),
(209,523,o),
(295,564,c),
(325,577,o),
(335,578,o),
(389,578,c),
(442,578,o),
(455,576,o),
(479,565,c),
(514,547,o),
(555,501,o),
(580,451,c),
(601,410,o),
(610,404,o),
(627,421,c),
(634,429,o),
(635,438,o),
(633,457,c),
(632,471,o),
(629,522,o),
(629,567,c),
(629,644,o),
(628,651,o),
(620,651,c),
(614,651,o),
(602,645,o),
(592,638,c)
);
}
);
width = 743;
}
);
unicode = 71;
},
{
glyphname = H;
lastChange = "2023-01-30 15:53:14 +0000";
layers = (
{
layerId = m01;
shapes = (
{
attr = {
fillColor = (0,255);
};
closed = 1;
nodes = (
(3,613,o),
(9,607,o),
(46,590,c),
(105,564,o),
(101,577,o),
(101,307,c),
(101,76,l),
(87,58,l),
(79,48,o),
(59,35,o),
(43,30,c),
(23,23,o),
(14,16,o),
(14,8,c),
(14,-1,o),
(23,-1,o),
(165,0,c),
(331,1,o),
(345,5,o),
(284,30,c),
(235,49,o),
(231,60,o),
(231,187,c),
(231,292,l),
(382,290,l),
(532,289,l),
(532,182,l),
(532,60,o),
(531,55,o),
(479,31,c),
(463,23,o),
(447,12,o),
(447,7,c),
(447,0,o),
(469,-1,o),
(598,0,c),
(721,1,o),
(749,2,o),
(749,10,c),
(749,14,o),
(736,23,o),
(719,29,c),
(664,49,o),
(668,31,o),
(665,306,c),
(664,545,o),
(664,547,o),
(676,563,c),
(689,580,o),
(728,602,o),
(743,602,c),
(749,602,o),
(752,606,o),
(751,612,c),
(749,622,o),
(737,623,o),
(599,623,c),
(472,623,o),
(451,622,o),
(449,613,c),
(448,608,o),
(459,600,o),
(478,590,c),
(530,565,o),
(532,559,o),
(532,442,c),
(532,341,l),
(381,340,l),
(230,338,l),
(232,444,l),
(235,566,o),
(237,574,o),
(289,593,c),
(309,601,o),
(319,608,o),
(317,613,c),
(316,622,o),
(293,623,o),
(166,624,c),
(83,625,o),
(14,624,o),
(13,622,c)
);
}
);
width = 761;
},
{
associatedMasterId = m01;
layerId = "8218F9C6-901D-4C88-9CA8-42CE679523E7";
name = "Imported Artwork";
shapes = (
{
attr = {
fillColor = (0,255);
};
closed = 1;
nodes = (
(0,0,l),
(500,0,l),
(1000,0,l),
(1000,500,l),
(1000,1000,l),
(500,1000,l),
(0,1000,l),
(0,500,l)
);
},
{
attr = {
fillColor = (0,255);
};
closed = 1;
nodes = (
(998.047,1.953,l),
(500,1.953,l),
(1.953,1.953,l),
(1.953,500,l),
(1.953,998.047,l),
(500,998.047,l),
(998.047,998.047,l),
(998.047,500,l)
);
},
{
attr = {
fillColor = (0,255);
};
closed = 1;
nodes = (
(555.528,938.799,o),
(549.485,936.578,o),
(545.094,935.116,c),
(540.176,933.479,o),
(537.109,931.933,o),
(537.109,931.092,c),
(537.109,930.342,o),
(538.86,928.834,o),
(541,927.742,c),
(543.292,926.573,o),
(545.099,924.859,o),
(545.397,923.572,c),
(545.677,922.37,o),
(546.014,899.775,o),
(546.145,873.361,c),
(546.381,826.573,o),
(546.438,825.267,o),
(548.4,822.641,c),
(552.487,817.169,o),
(555.196,815.943,o),
(564.021,815.574,c),
(583.783,814.747,o),
(602.365,826.896,o),
(609.936,845.592,c),
(613.727,854.954,o),
(614.304,867.455,o),
(611.311,875.372,c),
(608.719,882.227,o),
(603.511,888.313,o),
(598.145,890.756,c),
(590.507,894.234,o),
(576.432,892.748,o),
(569.365,887.716,c),
(566.533,885.7,o),
(564.953,885.157,o),
(565.771,886.482,c),
(566.023,886.89,o),
(566.358,899.521,o),
(566.516,914.554,c),
(566.76,937.854,o),
(566.593,941.918,o),
(565.384,942.105,c),
(564.604,942.226,o),
(561.516,941.301,o),
(558.522,940.05,c)
);
},
{
attr = {
fillColor = (0,255);
};
closed = 1;
nodes = (
(254.063,919.205,o),
(238.302,904.819,o),
(232.918,884.149,c),
(230.991,876.754,o),
(231.029,861.761,o),
(232.992,854.145,c),
(237.737,835.742,o),
(252.697,820.726,o),
(271.047,815.945,c),
(278.504,814.004,o),
(294.738,814.004,o),
(302.195,815.945,c),
(315.412,819.389,o),
(330.778,830.895,o),
(337.518,842.395,c),
(352.143,867.349,o),
(346.321,901.138,o),
(324.955,915.32,c),
(315.954,921.294,o),
(306.12,924.046,o),
(292.48,924.405,c),
(286.035,924.575,o),
(278.784,924.307,o),
(276.367,923.808,c)
);
},
{
attr = {
fillColor = (0,255);
};
closed = 1;
nodes = (
(50,920.768,o),
(51.025,919.83,o),
(57.055,917.097,c),
(66.834,912.663,o),
(66.406,914.826,o),
(66.406,869.752,c),
(66.406,831.204,l),
(63.89,828.213,l),
(62.487,826.547,o),
(59.242,824.466,o),
(56.565,823.515,c),
(53.243,822.335,o),
(51.758,821.27,o),
(51.758,820.066,c),
(51.758,818.436,o),
(53.336,818.343,o),
(76.904,818.587,c),
(104.462,818.873,o),
(106.913,819.488,o),
(96.68,823.551,c),
(88.486,826.804,o),
(87.894,828.578,o),
(87.893,849.87,c),
(87.891,867.221,l),
(113.037,866.96,l),
(138.184,866.699,l),
(138.184,849.075,l),
(138.184,828.523,o),
(137.938,827.814,o),
(129.43,823.789,c),
(126.441,822.376,o),
(124.023,820.582,o),
(124.023,819.779,c),
(124.023,818.524,o),
(127.445,818.362,o),
(149.17,818.587,c),
(169.606,818.799,o),
(174.316,819.097,o),
(174.316,820.177,c),
(174.316,820.908,o),
(172.07,822.345,o),
(169.324,823.369,c),
(160.09,826.813,o),
(160.683,823.756,o),
(160.37,869.56,c),
(160.098,909.338,o),
(160.119,909.846,o),
(162.171,912.454,c),
(164.374,915.256,o),
(170.742,918.945,o),
(173.372,918.945,c),
(174.348,918.945,o),
(174.822,919.597,o),
(174.619,920.654,c),
(174.315,922.229,o),
(172.329,922.363,o),
(149.414,922.363,c),
(128.075,922.363,o),
(124.499,922.155,o),
(124.264,920.898,c),
(124.089,919.968,o),
(125.851,918.544,o),
(129.098,916.992,c),
(137.786,912.84,o),
(138.184,911.758,o),
(138.184,892.263,c),
(138.184,875.488,l),
(112.928,875.228,l),
(87.672,874.967,l),
(88.036,892.504,l),
(88.46,912.904,o),
(88.94,914.172,o),
(97.505,917.48,c),
(100.839,918.769,o),
(102.469,919.933,o),
(102.292,920.898,c),
(102.064,922.147,o),
(98.344,922.401,o),
(77.07,922.624,c),
(63.345,922.767,o),
(51.815,922.584,o),
(51.448,922.217,c)
);
},
{
attr = {
fillColor = (0,255);
};
closed = 1;
nodes = (
(308.52,911.557,o),
(315.272,901.335,o),
(318.031,888.348,c),
(320.36,877.386,o),
(319.378,857.348,o),
(316.002,846.925,c),
(312.669,836.637,o),
(306.564,827.604,o),
(300.345,823.758,c),
(296.282,821.245,o),
(294.716,820.856,o),
(288.694,820.865,c),
(282.844,820.874,o),
(280.9,821.333,o),
(276.466,823.758,c),
(267.868,828.459,o),
(261.527,838.384,o),
(258.078,852.539,c),
(255.996,861.087,o),
(256.038,881.071,o),
(258.157,889.901,c),
(261.331,903.125,o),
(269.227,913.626,o),
(278.144,916.484,c),
(284.014,918.366,o),
(295.143,917.907,o),
(300.042,915.581,c)
);
},
{
attr = {
fillColor = (0,255);
};
closed = 1;
nodes = (
(412.744,887.767,o),
(407.031,885.466,o),
(403.809,884.351,c),
(400.586,883.234,o),
(397.949,881.805,o),
(397.949,881.173,c),
(397.949,880.541,o),
(399.795,878.688,o),
(402.05,877.054,c),
(404.983,874.929,o),
(406.313,873.172,o),
(406.725,870.88,c),
(407.04,869.117,o),
(407.173,848.34,o),
(407.019,824.707,c),
(406.738,781.738,l),
(402.588,779.811,l),
(394.307,775.964,o),
(398.253,774.533,o),
(418.072,774.197,c),
(432.697,773.948,o),
(434.059,774.07,o),
(434.376,775.659,c),
(434.618,776.87,o),
(433.812,777.71,o),
(431.696,778.447,c),
(430.031,779.027,o),
(428.239,780.306,o),
(427.714,781.288,c),
(427.188,782.271,o),
(426.758,791.187,o),
(426.758,801.102,c),
(426.758,819.128,l),
(430.908,818.17,l),
(445.783,814.733,o),
(462.429,824.582,o),
(470.934,841.851,c),
(478.589,857.396,o),
(477.539,872.415,o),
(468.062,882.905,c),
(463.307,888.169,o),
(457.896,890.78,o),
(450.521,891.372,c),
(443.658,891.924,o),
(436.409,890.047,o),
(430.475,886.183,c),
(426.868,883.834,l),
(426.568,887.953,l),
(426.37,890.694,o),
(425.779,892.152,o),
(424.805,892.309,c),
(424,892.438,o),
(420.264,891.157,o),
(416.504,889.462,c)
);
},
{
attr = {
fillColor = (0,255);
};
closed = 1;
nodes = (
(700.83,887.311,o),
(695.557,885.091,o),
(692.871,884.201,c),
(687.537,882.433,o),
(684.239,879.954,o),
(686.232,879.212,c),
(689.152,878.125,o),
(693.93,874.235,o),
(695.04,872.041,c),
(695.897,870.347,o),
(696.265,863.638,o),
(696.274,849.497,c),
(696.288,830.548,o),
(696.169,829.213,o),
(694.25,826.772,c),
(693.128,825.347,o),
(690.931,823.518,o),
(689.367,822.709,c),
(687.803,821.9,o),
(686.523,820.591,o),
(686.523,819.799,c),
(686.523,818.577,o),
(689.547,818.359,o),
(706.485,818.359,c),
(717.465,818.359,o),
(726.664,818.71,o),
(726.929,819.139,c),
(727.706,820.396,o),
(726.3,821.797,o),
(722.867,823.186,c),
(721.103,823.899,o),
(718.796,825.581,o),
(717.74,826.924,c),
(715.948,829.202,o),
(715.82,830.983,o),
(715.82,853.609,c),
(715.82,877.854,l),
(719.779,878.921,l),
(728.063,881.151,o),
(736.662,877.936,o),
(739.747,871.453,c),
(741.756,867.23,o),
(743.682,841.171,o),
(742.604,832.787,c),
(742.019,828.231,o),
(739.421,824.94,o),
(733.866,821.717,c),
(732.833,821.117,o),
(732.382,820.19,o),
(732.797,819.52,c),
(733.312,818.687,o),
(739.003,818.359,o),
(752.987,818.359,c),
(769.191,818.359,o),
(772.461,818.593,o),
(772.461,819.751,c),
(772.461,820.517,o),
(770.605,822.166,o),
(768.337,823.418,c),
(762.005,826.91,o),
(761.749,827.966,o),
(761.733,850.652,c),
(761.717,873.812,o),
(760.806,878.613,o),
(755.432,883.868,c),
(751.108,888.096,o),
(747.155,889.482,o),
(739.167,889.574,c),
(732.82,889.647,o),
(725.501,887.769,o),
(718.963,884.387,c),
(715.927,882.817,l),
(715.63,887.454,l),
(715.25,893.375,o),
(713.794,893.596,o),
(704.59,889.134,c)
);
},
{
attr = {
fillColor = (0,255);
};
closed = 1;
nodes = (
(847.974,885.734,o),
(848.715,884.764,o),
(852.497,882.834,c),
(857.424,880.32,o),
(858.631,878.207,o),
(872.579,847.656,c),
(888.905,811.899,o),
(888.099,814.242,o),
(886.146,808.222,c),
(883.093,798.817,o),
(878.765,788.086,o),
(878.023,788.086,c),
(877.616,788.086,o),
(876.706,789.165,o),
(876,790.483,c),
(871.946,798.058,o),
(860.436,796.204,o),
(858.846,787.72,c),
(857.5,780.547,o),
(863.755,774.75,o),
(871.855,775.663,c),
(880.881,776.68,o),
(883.244,780.331,o),
(893.124,808.529,c),
(899.867,827.774,o),
(912.738,861.848,o),
(916.76,871.102,c),
(919.316,876.984,o),
(923.5,881.799,o),
(927.513,883.475,c),
(929.32,884.23,o),
(930.622,885.379,o),
(930.406,886.027,c),
(930.12,886.885,o),
(925.656,887.207,o),
(914.062,887.207,c),
(896.573,887.207,o),
(894.08,886.353,o),
(901.714,882.976,c),
(906.812,880.721,o),
(908.637,877.929,o),
(907.803,873.66,c),
(906.668,867.849,o),
(896.183,838.779,o),
(895.501,839.554,c),
(894.305,840.915,o),
(879.883,875.596,o),
(879.883,877.112,c),
(879.883,878.997,o),
(883.546,882.405,o),
(886.963,883.7,c),
(888.44,884.26,o),
(889.648,885.388,o),
(889.648,886.206,c),
(889.648,887.492,o),
(886.935,887.695,o),
(869.792,887.695,c),
(858.87,887.695,o),
(849.642,887.402,o),
(849.284,887.044,c)
);
},
{
attr = {
fillColor = (0,255);
};
closed = 1;
nodes = (
(591.539,875.544,o),
(596.163,863.923,o),
(596.096,849.447,c),
(596.058,841.41,o),
(595.694,839.306,o),
(593.653,835.287,c),
(590.271,828.627,o),
(584.916,825.926,o),
(576,826.383,c),
(565.052,826.942,o),
(565.43,825.915,o),
(565.43,855.113,c),
(565.43,879.846,l),
(567.627,880.314,l),
(572.545,881.364,o),
(573.898,881.461,o),
(577.637,881.035,c),
(579.785,880.791,o),
(582.76,879.976,o),
(584.248,879.225,c)
);
},
{
attr = {
fillColor = (0,255);
};
closed = 1;
nodes = (
(454.193,873.619,o),
(457.23,866.298,o),
(457.8,854.464,c),
(458.745,834.838,o),
(452.729,824.88,o),
(439.964,824.939,c),
(437.267,824.952,o),
(433.19,825.722,o),
(430.908,826.649,c),
(426.758,828.337,l),
(426.758,853.48,l),
(426.758,878.624,l),
(429.932,879.7,l),
(435.097,881.452,o),
(443.901,880.43,o),
(448.211,877.578,c)
);
},
{
attr = {
fillColor = (0,255);
};
closed = 1;
nodes = (
(705.591,703.803,o),
(699.438,701.437,o),
(694.336,699.675,c),
(684.766,696.371,o),
(682.169,694,o),
(686.84,692.827,c),
(688.159,692.496,o),
(690.496,690.913,o),
(692.031,689.311,c),
(694.824,686.396,l),
(695.104,641.229,l),
(695.381,596.83,o),
(695.351,596.016,o),
(693.366,593.492,c),
(692.256,592.08,o),
(689.822,590.374,o),
(687.959,589.7,c),
(685.783,588.913,o),
(684.57,587.839,o),
(684.57,586.698,c),
(684.57,585.028,o),
(685.813,584.938,o),
(705.322,585.186,c),
(727.947,585.473,o),
(729.735,586.007,o),
(721.683,590.069,c),
(719.268,591.288,o),
(716.747,593.384,o),
(716.082,594.727,c),
(715.227,596.454,o),
(714.868,603.821,o),
(714.858,619.923,c),
(714.844,642.678,l),
(718.23,644.093,l),
(726.225,647.433,o),
(735.727,644.491,o),
(739.444,637.524,c),
(741.535,633.607,o),
(741.723,631.934,o),
(742.019,614.479,c),
(742.338,595.658,l),
(738.942,592.263,l),
(737.075,590.396,o),
(734.844,588.867,o),
(733.984,588.867,c),
(733.073,588.867,o),
(732.422,588.054,o),
(732.422,586.914,c),
(732.422,585.024,o),
(733.073,584.961,o),
(752.441,584.961,c),
(771.064,584.961,o),
(772.461,585.083,o),
(772.461,586.718,c),
(772.461,587.837,o),
(771.23,588.92,o),
(769.072,589.7,c),
(767.209,590.374,o),
(764.792,592.06,o),
(763.701,593.446,c),
(761.857,595.79,o),
(761.719,597.348,o),
(761.719,615.677,c),
(761.719,638.322,o),
(760.761,643.319,o),
(755.252,649.418,c),
(750.957,654.172,o),
(746.613,655.675,o),
(737.305,655.629,c),
(729.686,655.591,o),
(720.167,652.787,o),
(717.743,649.865,c),
(717.091,649.08,o),
(716.144,648.438,o),
(715.638,648.438,c),
(715.079,648.438,o),
(714.796,659.505,o),
(714.917,676.631,c),
(715.026,692.138,o),
(714.809,705.321,o),
(714.434,705.928,c),
(713.528,707.393,o),
(713.137,707.332,o),
(708.008,704.933,c)
);
},
{
attr = {
fillColor = (0,255);
};
closed = 1;
nodes = (
(307.199,692.516,o),
(306.605,692.408,o),
(293.419,692.057,c),
(276.412,691.604,o),
(270.662,689.734,o),
(263.142,682.215,c),
(257.369,676.442,o),
(254.88,670.399,o),
(254.889,662.18,c),
(254.896,653.596,o),
(256.45,649.671,o),
(262.051,644.085,c),
(266.298,639.849,o),
(269.177,638.176,o),
(280.366,633.442,c),
(287.669,630.354,o),
(295.248,626.736,o),
(297.209,625.403,c),
(302.215,622.002,o),
(304.851,616.384,o),
(304.816,609.188,c),
(304.779,601.336,o),
(301.56,595.751,o),
(295.336,592.737,c),
(280.194,585.407,o),
(264.631,593.231,o),
(256.864,612.076,c),
(253.271,620.793,o),
(251.008,623.643,o),
(248.452,622.662,c),
(247.098,622.142,o),
(246.932,621.119,o),
(247.442,616.439,c),
(247.779,613.359,o),
(248.335,604.54,o),
(248.677,596.841,c),
(249.376,581.099,o),
(249.611,580.668,o),
(255.825,583.743,c),
(259.498,585.561,o),
(260.128,585.586,o),
(267.79,584.24,c),
(272.824,583.356,o),
(279.598,582.977,o),
(285.728,583.234,c),
(294.179,583.591,o),
(296.49,584.077,o),
(302.017,586.663,c),
(309.86,590.334,o),
(316.772,596.516,o),
(319.873,602.635,c),
(323,608.808,o),
(324.444,618.166,o),
(323.157,623.931,c),
(320.642,635.2,o),
(313.503,641.317,o),
(294.026,648.895,c),
(280.672,654.089,o),
(276.874,656.37,o),
(273.61,661.156,c),
(271.642,664.043,o),
(271.368,665.385,o),
(271.781,670.124,c),
(272.652,680.102,o),
(277.944,684.59,o),
(288.787,684.549,c),
(298.738,684.511,o),
(305.584,679.702,o),
(311.054,668.909,c),
(313.509,664.063,o),
(315.313,662.987,o),
(317.136,665.283,c),
(318.426,666.909,o),
(318.2,697.486,o),
(316.895,697.904,c),
(316.357,698.077,o),
(313.924,696.913,o),
(311.485,695.319,c)
);
},
{
attr = {
fillColor = (0,255);
};
closed = 1;
nodes = (
(138.947,691.724,o),
(132.155,691.152,o),
(98.159,691.533,c),
(67.012,691.882,o),
(65.918,691.832,o),
(65.918,690.04,c),
(65.918,688.769,o),
(67.085,687.781,o),
(69.622,686.902,c),
(75.495,684.869,o),
(78.936,681.908,o),
(80.038,677.937,c),
(81.128,674.014,o),
(81.488,604.953,o),
(80.447,599.745,c),
(79.615,595.588,o),
(75.956,592.206,o),
(70.23,590.305,c),
(66.701,589.133,o),
(65.43,588.214,o),
(65.43,586.836,c),
(65.43,585.019,o),
(66.618,584.961,o),
(103.76,584.955,c),
(135.853,584.95,o),
(142.545,584.712,o),
(144.887,583.49,c),
(150.451,580.588,o),
(150.383,580.488,o),
(152.301,594.414,c),
(152.905,598.808,o),
(154.639,606.353,o),
(156.152,611.181,c),
(157.666,616.009,o),
(158.584,620.478,o),
(158.192,621.11,c),
(156.648,623.609,o),
(153.561,621.2,o),
(148.165,613.284,c),
(136.927,596.796,o),
(131.785,593.75,o),
(115.197,593.75,c),
(100.998,593.75,o),
(101.562,592.779,o),
(101.562,617.188,c),
(101.562,636.719,l),
(105.347,636.719,l),
(115.144,636.719,o),
(119.489,633.669,o),
(122.559,624.64,c),
(124.328,619.433,o),
(126.609,617.232,o),
(128.82,618.6,c),
(129.346,618.924,o),
(129.636,627.91,o),
(129.509,639.902,c),
(129.29,660.498,o),
(129.273,660.646,o),
(127.124,660.959,c),
(125.412,661.208,o),
(124.634,660.494,o),
(123.403,657.541,c),
(119.777,648.845,o),
(116.038,645.964,o),
(106.996,644.901,c),
(101.519,644.257,l),
(101.784,662.705,l),
(102.051,681.152,l),
(113.77,681.433,l),
(128.716,681.79,o),
(132.326,680.588,o),
(137.627,673.487,c),
(139.692,670.721,o),
(142.333,666.562,o),
(143.496,664.245,c),
(145.15,660.948,o),
(146.074,660.101,o),
(147.747,660.339,c),
(149.866,660.642,o),
(149.884,660.808,o),
(149.71,678.711,c),
(149.55,695.338,o),
(149.395,696.797,o),
(147.766,697.021,c),
(146.792,697.155,o),
(144.897,696.401,o),
(143.555,695.346,c)
);
},
{
attr = {
fillColor = (0,255);
};
closed = 1;
nodes = (
(560.833,649.839,o),
(551.254,640.307,o),
(548.209,629.986,c),
(546.014,622.548,o),
(546.73,608.613,o),
(549.64,602.129,c),
(552.751,595.193,o),
(557.612,589.719,o),
(563.609,586.397,c),
(568.527,583.673,o),
(569.504,583.496,o),
(579.59,583.496,c),
(589.497,583.496,o),
(590.749,583.713,o),
(595.703,586.282,c),
(602.028,589.564,o),
(608.398,595.371,o),
(608.398,597.854,c),
(608.398,600.019,o),
(606.934,600.058,o),
(601.441,598.038,c),
(599.091,597.174,o),
(594.092,596.448,o),
(590.332,596.425,c),
(574.403,596.326,o),
(563.477,606.718,o),
(563.477,621.964,c),
(563.477,625.876,l),
(586.463,626.171,l),
(611.674,626.493,o),
(611.869,626.543,o),
(610.765,632.324,c),
(608.99,641.612,o),
(600.653,651.82,o),
(592.962,654.125,c),
(587.365,655.802,o),
(578.499,655.437,o),
(571.583,653.245,c)
);
},
{
attr = {
fillColor = (0,255);
};
closed = 1;
nodes = (
(428.972,651.058,o),
(423.352,646.411,o),
(420.801,641.409,c),
(418.36,636.627,o),
(418.158,628.379,o),
(420.375,624.091,c),
(422.237,620.49,o),
(428.415,615.797,o),
(433.427,614.175,c),
(439.473,612.218,o),
(446.073,608.548,o),
(447.686,606.246,c),
(452.58,599.259,o),
(445.803,589.838,o),
(435.888,589.848,c),
(429.865,589.854,o),
(426.305,592.735,o),
(422.662,600.553,c),
(419.524,607.288,o),
(416.886,609.659,o),
(414.822,607.596,c),
(414.145,606.918,o),
(414.167,603.685,o),
(414.894,597.489,c),
(416.164,586.655,o),
(416.934,585.746,o),
(426.33,583.973,c),
(446.822,580.106,o),
(464.749,590.704,o),
(464.822,606.729,c),
(464.845,611.629,o),
(462.493,617.438,o),
(459.332,620.287,c),
(458.335,621.186,o),
(452.395,624.327,o),
(446.132,627.269,c),
(433.879,633.022,o),
(432.044,634.821,o),
(433.035,640.105,c),
(433.949,644.977,o),
(436.809,646.973,o),
(442.871,646.973,c),
(449.129,646.973,o),
(451.187,645.393,o),
(455.152,637.543,c),
(457.934,632.04,o),
(459.353,630.744,o),
(461.67,631.596,c),
(462.956,632.068,o),
(463.479,649.676,o),
(462.298,652.752,c),
(461.802,654.044,o),
(459.844,654.286,o),
(450.335,654.229,c),
(443.541,654.188,o),
(437.196,653.611,o),
(434.57,652.796,c)
);
},
{
attr = {
fillColor = (0,255);
};
closed = 1;
nodes = (
(846.721,651.795,o),
(847.571,649.687,o),
(850.591,648.436,c),
(852.204,647.768,o),
(854.749,645.826,o),
(856.245,644.122,c),
(858.658,641.373,o),
(875.638,608.194,o),
(884.396,589.111,c),
(887.115,583.187,o),
(888.029,582.031,o),
(889.993,582.031,c),
(891.733,582.031,o),
(892.667,582.854,o),
(893.6,585.205,c),
(899.451,599.967,o),
(916.839,638.033,o),
(919.285,641.439,c),
(920.972,643.789,o),
(924.003,646.554,o),
(926.021,647.583,c),
(930.103,649.666,o),
(930.901,652.298,o),
(927.49,652.427,c),
(910.925,653.051,o),
(900.561,653.164,o),
(899.17,652.737,c),
(896.533,651.927,o),
(897.146,649.715,o),
(900.312,648.611,c),
(904.385,647.191,o),
(907.232,643.986,o),
(907.19,640.869,c),
(907.147,637.621,o),
(896.362,609.456,o),
(895.112,609.327,c),
(893.555,609.166,o),
(878.754,642.515,o),
(879.434,644.655,c),
(879.772,645.723,o),
(881.565,647.318,o),
(883.418,648.202,c),
(885.465,649.178,o),
(886.672,650.401,o),
(886.496,651.32,c),
(886.247,652.612,o),
(883.581,652.857,o),
(868.151,653.01,c),
(858.222,653.107,o),
(849.549,652.961,o),
(848.877,652.685,c)
);
},
{
attr = {
fillColor = (0,255);
};
closed = 1;
nodes = (
(590.185,643.908,o),
(592.773,639.722,o),
(592.773,636.324,c),
(592.773,633.789,l),
(578.613,633.789,l),
(570.825,633.789,o),
(564.453,634.026,o),
(564.453,634.316,c),
(564.453,636.11,o),
(568.755,642.737,o),
(571.321,644.896,c),
(573.725,646.919,o),
(575.404,647.461,o),
(579.27,647.461,c),
(582.054,647.461,o),
(585.339,646.771,o),
(586.875,645.863,c)
);
},
{
attr = {
fillColor = (0,255);
};
closed = 1;
nodes = (
(767.291,459.588,o),
(766.068,459.46,o),
(747.094,459.229,c),
(724.187,458.949,o),
(716.473,457.566,o),
(704.204,451.542,c),
(687.314,443.248,o),
(675.815,424.507,o),
(675.815,405.273,c),
(675.815,391.789,o),
(681.671,377.749,o),
(691.329,368.077,c),
(702.331,357.06,o),
(713.532,353.065,o),
(733.398,353.076,c),
(747.214,353.084,o),
(752.128,354.217,o),
(764.992,360.354,c),
(779.708,367.378,o),
(785.016,371.768,o),
(780.762,373.4,c),
(779.617,373.839,o),
(779.297,375.794,o),
(779.297,382.342,c),
(779.297,394.096,o),
(781.3,397.374,o),
(790.283,400.318,c),
(792.842,401.157,o),
(793.945,402.089,o),
(793.945,403.41,c),
(793.945,405.245,o),
(793.07,405.295,o),
(764.905,405.044,c),
(739.352,404.816,o),
(735.83,404.6,o),
(735.569,403.243,c),
(735.353,402.115,o),
(736.89,401.211,o),
(741.286,399.88,c),
(748.781,397.61,o),
(754.609,393.472,o),
(756.423,389.131,c),
(758.216,384.841,o),
(758.223,373.735,o),
(756.435,370.313,c),
(750.166,358.312,o),
(731.551,355.745,o),
(717.626,364.96,c),
(712.646,368.256,o),
(707.684,375.965,o),
(704.495,385.36,c),
(702.417,391.483,o),
(701.78,395.52,o),
(701.395,405.009,c),
(700.422,428.968,o),
(706.265,442.37,o),
(720.619,449.102,c),
(725.443,451.364,o),
(727.26,451.656,o),
(736.328,451.623,c),
(745.032,451.592,o),
(747.284,451.242,o),
(751.231,449.313,c),
(757.173,446.409,o),
(763.92,438.897,o),
(768.172,430.455,c),
(771.619,423.609,o),
(773.102,422.655,o),
(775.918,425.471,c),
(777.182,426.735,o),
(777.423,428.117,o),
(776.964,431.467,c),
(776.636,433.86,o),
(776.367,442.13,o),
(776.367,449.844,c),
(776.367,462.561,o),
(776.208,463.864,o),
(774.658,463.836,c),
(773.719,463.819,o),
(771.642,462.83,o),
(770.043,461.639,c)
);
},
{
attr = {
fillColor = (0,255);
};
closed = 1;
nodes = (
(83.954,457.651,o),
(85.356,456.08,o),
(89.814,454.6,c),
(97.99,451.884,o),
(99.287,449.449,o),
(100.104,435.283,c),
(101.232,415.713,o),
(100.253,369.06,o),
(98.66,366.568,c),
(97.178,364.249,o),
(92.856,361.392,o),
(88.39,359.776,c),
(86.772,359.192,o),
(85.315,358.029,o),
(85.153,357.192,c),
(84.893,355.855,o),
(87.8,355.624,o),
(109.079,355.288,c),
(122.4,355.078,o),
(134.069,355.084,o),
(135.01,355.302,c),
(138.233,356.047,o),
(136.716,358.242,o),
(131.865,359.854,c),
(129.047,360.79,o),
(125.975,362.697,o),
(124.541,364.401,c),
(122.07,367.337,l),
(122.07,407.431,l),
(122.07,447.523,l),
(125.35,450.616,l),
(127.153,452.317,o),
(130.449,454.255,o),
(132.674,454.921,c),
(135.628,455.807,o),
(136.719,456.649,o),
(136.719,458.047,c),
(136.719,459.898,o),
(135.896,459.961,o),
(111.491,459.961,c),
(97.615,459.961,o),
(85.97,459.668,o),
(85.612,459.31,c)
);
},
{
attr = {
fillColor = (0,255);
};
closed = 1;
nodes = (
(235.816,457.367,o),
(237.482,456.05,o),
(243.317,453.718,c),
(251.749,450.347,o),
(252.928,447.715,o),
(252.938,432.229,c),
(252.942,425.191,o),
(253.228,410.425,o),
(253.571,399.414,c),
(254.369,373.806,o),
(253.783,368.707,o),
(249.589,364.77,c),
(247.858,363.146,o),
(244.497,361.117,o),
(242.118,360.262,c),
(239.62,359.363,o),
(237.653,357.992,o),
(237.463,357.015,c),
(237.154,355.432,o),
(239.14,355.346,o),
(268.225,355.693,c),
(296.81,356.035,o),
(299.757,356.229,o),
(304.772,358.102,c),
(313.053,361.19,o),
(315.686,362.767,o),
(321.608,368.18,c),
(334.71,380.153,o),
(333.766,396.431,o),
(319.387,406.477,c),
(316.081,408.786,o),
(312.053,410.575,o),
(308.515,411.307,c),
(302.895,412.467,l),
(308.765,415.939,l),
(320.073,422.629,o),
(325.168,430.697,o),
(323.809,439.764,c),
(322.16,450.751,o),
(312.125,457.421,o),
(294.907,458.973,c),
(280.254,460.293,o),
(237.592,460.239,o),
(236.764,458.899,c)
);
},
{
attr = {
fillColor = (0,255);
};
closed = 1;
nodes = (
(839.471,456.604,o),
(839.47,456.604,o),
(844.798,453.797,c),
(850.598,450.74,o),
(853.93,446.094,o),
(868.218,421.138,c),
(880.371,399.911,l),
(880.716,386.785,l),
(881.137,370.713,o),
(880.269,367.21,o),
(874.896,363.318,c),
(872.742,361.758,o),
(869.718,360.205,o),
(868.175,359.865,c),
(865.213,359.215,o),
(862.57,356.831,o),
(863.633,355.768,c),
(864.328,355.073,o),
(918.177,355.352,o),
(918.88,356.054,c),
(919.71,356.885,o),
(916.49,359.067,o),
(912.013,360.708,c),
(909.542,361.613,o),
(906.466,363.476,o),
(905.177,364.847,c),
(902.916,367.25,o),
(902.821,367.941,o),
(902.546,384.109,c),
(902.261,400.879,l),
(913.135,419.922,l),
(927.985,445.927,o),
(931.155,450.213,o),
(938.189,453.795,c),
(948.153,458.868,o),
(946.572,459.473,o),
(923.353,459.473,c),
(904.866,459.473,o),
(902.827,459.311,o),
(902.54,457.817,c),
(902.308,456.613,o),
(903.262,455.883,o),
(906.045,455.134,c),
(910.977,453.806,o),
(915.039,450.04,o),
(915.039,446.796,c),
(915.039,444.046,o),
(912.686,439.098,o),
(903.021,421.535,c),
(896.813,410.254,o),
(896.619,410.022,o),
(895.237,412.258,c),
(890.218,420.376,o),
(877.773,443.902,o),
(877.341,446.092,c),
(876.677,449.452,o),
(879.502,452.612,o),
(885.452,455.163,c),
(893.905,458.787,o),
(890.912,459.452,o),
(864.886,459.734,c),
(843.778,459.963,o),
(840.699,459.805,o),
(840.187,458.471,c)
);
},
{
attr = {
fillColor = (0,255);
};
closed = 1;
nodes = (
(301.063,447.408,o),
(303.68,439.361,o),
(302.285,428.194,c),
(301.737,423.813,o),
(300.903,421.891,o),
(298.333,419.084,c),
(295.075,415.527,l),
(285.232,415.191,l),
(275.391,414.856,l),
(275.391,433.647,l),
(275.391,452.438,l),
(283.592,451.859,l),
(288.104,451.541,o),
(293.348,450.632,o),
(295.246,449.839,c)
);
},
{
attr = {
fillColor = (0,255);
};
closed = 1;
nodes = (
(431.411,422.598,o),
(427.308,420.515,o),
(422,415.549,c),
(412.482,406.647,o),
(413.12,401.983,o),
(423.838,402.084,c),
(427.122,402.115,o),
(430.065,402.397,o),
(430.378,402.709,c),
(430.69,403.021,o),
(431.169,405.594,o),
(431.441,408.426,c),
(432.009,414.338,o),
(433.256,415.645,o),
(439.211,416.569,c),
(444.317,417.362,o),
(447.779,415.409,o),
(449.789,410.6,c),
(451.285,407.018,o),
(451.652,394.849,o),
(450.327,392.758,c),
(449.879,392.051,o),
(445.82,390.666,o),
(441.309,389.68,c),
(422.234,385.511,o),
(412.109,377.521,o),
(412.109,366.637,c),
(412.109,361.746,o),
(414.749,357.736,o),
(419.477,355.448,c),
(426.694,351.954,o),
(435.566,353.286,o),
(445.408,359.341,c),
(450.078,362.214,l),
(451.846,358.598,l),
(453.591,355.025,o),
(453.694,354.977,o),
(460.059,354.695,c),
(464.776,354.486,o),
(467.981,354.963,o),
(472.021,356.475,c),
(478.239,358.801,o),
(479.004,360.626,o),
(474.429,362.222,c),
(467.665,364.579,o),
(467.774,364.147,o),
(467.768,388.579,c),
(467.765,400.715,o),
(467.314,412.256,o),
(466.768,414.227,c),
(465.404,419.137,o),
(460.276,423.39,o),
(454.131,424.707,c),
(448.084,426.004,o),
(446.387,425.97,o),
(439.453,424.408,c)
);
},
{
attr = {
fillColor = (0,255);
};
closed = 1;
nodes = (
(556.286,420.729,o),
(548.369,411.395,o),
(548.441,399.414,c),
(548.485,392.144,o),
(550.016,388.565,o),
(555.731,382.364,c),
(559.54,378.232,l),
(555.683,375.132,l),
(550.676,371.108,o),
(548.757,365.515,o),
(551.138,361.881,c),
(552.025,360.525,o),
(554.177,358.691,o),
(555.917,357.807,c),
(557.658,356.921,o),
(559.274,356.023,o),
(559.51,355.812,c),
(559.744,355.601,o),
(558.139,353.569,o),
(555.94,351.298,c),
(546.564,341.606,o),
(544.128,334.352,o),
(547.743,326.884,c),
(551.603,318.911,o),
(559.04,315.43,o),
(572.211,315.43,c),
(593.317,315.43,o),
(609.311,326.142,o),
(613.765,343.262,c),
(616.753,354.743,o),
(612.951,363.592,o),
(603.3,367.625,c),
(600.288,368.883,o),
(596.784,369.027,o),
(582.101,368.495,c),
(562.985,367.803,o),
(562.38,367.958,o),
(564.275,373.083,c),
(565.106,375.33,o),
(565.486,375.422,o),
(572.855,375.155,c),
(579.849,374.903,o),
(581.135,375.163,o),
(586.668,377.943,c),
(593.602,381.428,o),
(600.63,387.982,o),
(603.793,393.916,c),
(605.561,397.232,o),
(605.944,399.554,o),
(605.95,406.982,c),
(605.957,416.016,l),
(613.037,416.016,l),
(618.886,416.016,o),
(620.468,416.366,o),
(622.13,418.028,c),
(623.237,419.136,o),
(624.002,420.784,o),
(623.828,421.69,c),
(623.568,423.055,o),
(622.078,423.393,o),
(615.224,423.645,c),
(610.664,423.813,o),
(604.417,423.463,o),
(601.341,422.868,c),
(596.784,421.986,o),
(594.808,422.065,o),
(590.666,423.295,c),
(585.179,424.925,o),
(574.991,425.136,o),
(569.076,423.742,c)
);
},
{
attr = {
fillColor = (0,255);
};
closed = 1;
nodes = (
(587.878,413.472,o),
(590.172,407.367,o),
(589.633,398.96,c),
(588.934,388.063,o),
(584.16,381.641,o),
(576.763,381.641,c),
(569.501,381.641,o),
(565.427,386.976,o),
(564.686,397.453,c),
(563.804,409.915,o),
(568.319,417.969,o),
(576.19,417.969,c),
(578.432,417.969,o),
(581.551,417.209,o),
(583.122,416.281,c)
);
},
{
attr = {
fillColor = (0,255);
};
closed = 1;
nodes = (
(305.494,402.605,o),
(306.957,399.138,o),
(307.435,386.515,c),
(307.784,377.291,o),
(307.581,375.541,o),
(305.712,371.681,c),
(302.548,365.145,o),
(298.028,363.281,o),
(285.336,363.281,c),
(275.391,363.281,l),
(275.391,385.254,l),
(275.391,407.227,l),
(285.4,407.205,l),
(293.114,407.188,o),
(296.348,406.758,o),
(299.496,405.329,c)
);
},
{
attr = {
fillColor = (0,255);
};
closed = 1;
nodes = (
(451.172,368.321,l),
(446.18,366.663,l),
(433.32,362.392,o),
(423.913,369.6,o),
(431.405,377.984,c),
(434.321,381.248,o),
(442.762,384.681,o),
(447.998,384.733,c),
(451.172,384.766,l),
(451.172,376.543,l)
);
},
{
attr = {
fillColor = (0,255);
};
closed = 1;
nodes = (
(601.526,350.399,o),
(602.258,337.86,o),
(597.05,331.313,c),
(592.813,325.988,o),
(586.853,323.242,o),
(579.527,323.242,c),
(574.917,323.242,o),
(572.785,323.75,o),
(570.303,325.439,c),
(564.334,329.501,o),
(562.988,332.301,o),
(562.988,340.647,c),
(562.988,344.805,o),
(563.585,349.559,o),
(564.327,351.318,c),
(565.667,354.492,l),
(579.772,354.492,l),
(587.58,354.492,o),
(594.718,354.043,o),
(595.757,353.486,c)
);
},
{
attr = {
fillColor = (0,255);
};
closed = 1;
nodes = (
(890.198,230.814,o),
(879.983,205.835,o),
(873.041,188.477,c),
(864.787,167.843,o),
(853.95,143.229,o),
(851.201,138.873,c),
(848.374,134.395,o),
(844.203,130.712,o),
(839.974,128.96,c),
(838.081,128.176,o),
(836.914,126.993,o),
(836.914,125.858,c),
(836.914,124.118,o),
(838.027,124.023,o),
(858.398,124.023,c),
(876.736,124.023,o),
(879.883,124.235,o),
(879.883,125.472,c),
(879.883,126.269,o),
(877.693,128.029,o),
(875.018,129.386,c),
(868.724,132.575,o),
(866.671,135.738,o),
(866.8,142.05,c),
(866.897,146.776,o),
(870.287,158.323,o),
(872.338,160.911,c),
(873.082,161.851,o),
(877.406,162.089,o),
(890.016,161.888,c),
(906.707,161.621,l),
(910.951,151.367,l),
(917.313,135.995,o),
(916.909,133.43,o),
(907.471,129.249,c),
(904.547,127.953,o),
(902.344,126.343,o),
(902.344,125.501,c),
(902.344,124.221,o),
(905.67,124.023,o),
(927.246,124.023,c),
(950.57,124.023,o),
(952.148,124.135,o),
(952.148,125.78,c),
(952.148,126.883,o),
(950.944,127.973,o),
(948.917,128.706,c),
(941.614,131.347,o),
(940.028,134.624,o),
(912.912,203.125,c),
(906.427,219.507,o),
(900.506,234.118,o),
(899.754,235.596,c),
(897.76,239.514,o),
(893.964,239.271,o),
(892.11,235.107,c)
);
},
{
attr = {
fillColor = (0,255);
};
closed = 1;
nodes = (
(565.806,230.1,o),
(565.188,222.485,o),
(569.966,216.807,c),
(574.473,211.45,o),
(582.377,211.98,o),
(587.422,217.975,c),
(589.357,220.275,o),
(589.844,221.932,o),
(589.844,226.225,c),
(589.844,230.858,o),
(589.452,231.987,o),
(586.989,234.45,c),
(583.084,238.355,o),
(575.828,238.533,o),
(571.429,234.831,c)
);
},
{
attr = {
fillColor = (0,255);
};
closed = 1;
nodes = (
(51.817,226.297,o),
(53.036,224.76,o),
(57.066,223.22,c),
(62.97,220.966,o),
(68.042,215.186,o),
(68.851,209.793,c),
(69.198,207.469,o),
(69.341,191.284,o),
(69.166,173.828,c),
(68.854,142.817,o),
(68.795,141.983,o),
(66.556,137.435,c),
(64.179,132.608,o),
(62.736,131.423,o),
(56.161,128.893,c),
(54.018,128.067,o),
(52.117,126.634,o),
(51.939,125.708,c),
(51.639,124.149,o),
(53.421,124.023,o),
(75.684,124.023,c),
(102.967,124.023,o),
(104.026,124.399,o),
(92.773,130.091,c),
(81.6,135.741,o),
(80.421,140.238,o),
(79.323,181.397,c),
(78.933,196.034,o),
(78.71,208.009,o),
(78.827,208.009,c),
(78.945,208.008,o),
(83.093,202.624,o),
(88.045,196.045,c),
(98.583,182.045,o),
(137.869,133.05,o),
(144.236,125.968,c),
(147.546,122.286,o),
(149.299,121.094,o),
(151.4,121.094,c),
(152.93,121.094,o),
(154.537,121.643,o),
(154.972,122.314,c),
(155.406,122.985,o),
(156.015,142.871,o),
(156.324,166.504,c),
(156.695,194.863,o),
(157.269,210.604,o),
(158.01,212.803,c),
(159.6,217.516,o),
(162.771,220.607,o),
(168.775,223.297,c),
(177.862,227.367,o),
(175.568,228.002,o),
(150.798,228.267,c),
(138.399,228.399,o),
(127.793,228.105,o),
(127.016,227.608,c),
(125.041,226.345,o),
(127.162,223.957,o),
(131.01,223.111,c),
(135.238,222.183,o),
(142.149,215.159,o),
(143.469,210.449,c),
(145.166,204.39,o),
(146.608,182.56,o),
(146.287,167.805,c),
(145.996,154.456,l),
(119.141,188.25,l),
(104.37,206.837,o),
(91.031,223.5,o),
(89.498,225.279,c),
(86.712,228.516,l),
(70.374,228.516,l),
(61.389,228.516,o),
(53.743,228.223,o),
(53.386,227.864,c)
);
},
{
attr = {
fillColor = (0,255);
};
closed = 1;
nodes = (
(237.338,226.27,o),
(238.618,224.747,o),
(242.92,223.119,c),
(249.377,220.676,o),
(251.808,218.935,o),
(253.602,215.465,c),
(254.932,212.894,o),
(255.166,207.117,o),
(255.261,174.618,c),
(255.371,136.766,l),
(252.399,133.789,l),
(250.765,132.152,o),
(247.251,130.034,o),
(244.592,129.082,c),
(241.736,128.061,o),
(239.624,126.671,o),
(239.436,125.687,c),
(239.14,124.152,o),
(241.202,124.023,o),
(266.113,124.023,c),
(290.136,124.023,o),
(293.077,124.192,o),
(292.796,125.558,c),
(292.622,126.401,o),
(290.104,128.049,o),
(287.2,129.22,c),
(278.495,132.728,o),
(277.886,134.188,o),
(277.521,152.412,c),
(277.209,167.969,l),
(285.333,167.985,l),
(305.83,168.028,o),
(319.803,174.901,o),
(326.324,188.15,c),
(332.583,200.862,o),
(329.628,214.139,o),
(318.919,221.422,c),
(310.165,227.377,o),
(302.264,228.441,o),
(266.521,228.483,c),
(251.705,228.501,o),
(239.29,228.223,o),
(238.933,227.864,c)
);
},
{
attr = {
fillColor = (0,255);
};
closed = 1;
nodes = (
(672.696,226.911,o),
(673.874,225.076,o),
(678.4,222.656,c),
(680.912,221.313,o),
(683.766,219.116,o),
(684.741,217.773,c),
(685.718,216.431,o),
(695.523,194.678,o),
(706.532,169.434,c),
(717.541,144.189,o),
(726.93,122.876,o),
(727.395,122.07,c),
(727.859,121.265,o),
(729.504,120.605,o),
(731.05,120.605,c),
(734.228,120.605,o),
(734.146,120.418,o),
(755.528,175.781,c),
(761.232,190.552,o),
(767.339,205.519,o),
(769.098,209.04,c),
(772.506,215.864,o),
(777.796,221.393,o),
(782.966,223.534,c),
(784.948,224.355,o),
(786.133,225.532,o),
(786.133,226.681,c),
(786.133,228.415,o),
(785.064,228.516,o),
(766.682,228.516,c),
(755.983,228.516,o),
(746.535,228.249,o),
(745.686,227.923,c),
(743.02,226.899,o),
(743.99,224.974,o),
(748.108,223.117,c),
(750.29,222.133,o),
(753.199,219.992,o),
(754.572,218.36,c),
(758.643,213.523,o),
(757.551,207.847,o),
(746.494,176.353,c),
(741.23,161.358,o),
(736.728,149.713,o),
(736.489,150.474,c),
(736.033,151.92,o),
(720.256,189.496,o),
(714.792,202.148,c),
(711.125,210.639,o),
(710.578,216.631,o),
(713.204,219.533,c),
(714.183,220.614,o),
(717.178,222.443,o),
(719.859,223.597,c),
(728.694,227.397,o),
(726.062,228.012,o),
(700.114,228.203,c),
(687,228.3,o),
(675.721,228.153,o),
(675.049,227.878,c)
);
},
{
attr = {
fillColor = (0,255);
};
closed = 1;
nodes = (
(304.197,213.91,o),
(305.1,211.656,o),
(305.51,200.592,c),
(305.976,187.997,o),
(304.688,182.701,o),
(300.203,178.764,c),
(296.59,175.591,o),
(291.654,174.493,o),
(283.203,174.982,c),
(277.832,175.293,l),
(277.569,198.093,l),
(277.308,220.893,l),
(286.533,220.554,l),
(293.981,220.28,o),
(296.279,219.827,o),
(298.454,218.201,c)
);
},
{
attr = {
fillColor = (0,255);
};
closed = 1;
nodes = (
(903.984,169.434,l),
(896.862,169.149,l),
(892.946,168.993,o),
(886.273,168.993,o),
(882.035,169.149,c),
(874.33,169.434,l),
(877.408,177.246,l),
(879.102,181.543,o),
(882.407,190.027,o),
(884.753,196.102,c),
(888.24,205.126,o),
(889.199,206.823,o),
(890.002,205.389,c),
(890.542,204.423,o),
(893.909,195.938,o),
(897.484,186.533,c)
);
},
{
attr = {
fillColor = (0,255);
};
closed = 1;
nodes = (
(578.104,193.353,o),
(572.61,190.911,o),
(568.503,189.283,c),
(564.395,187.654,o),
(560.655,185.966,o),
(560.19,185.529,c),
(559.726,185.094,o),
(561.051,183.66,o),
(563.135,182.345,c),
(569.933,178.054,o),
(569.792,178.584,o),
(570.136,155.831,c),
(570.439,135.716,o),
(570.393,135.13,o),
(568.263,132.423,c),
(567.062,130.895,o),
(564.584,129.021,o),
(562.757,128.258,c),
(560.93,127.495,o),
(559.612,126.34,o),
(559.828,125.691,c),
(560.118,124.821,o),
(565.432,124.512,o),
(580.078,124.512,c),
(601.489,124.512,o),
(604.286,125.222,o),
(596.493,128.677,c),
(594.179,129.702,o),
(591.718,131.23,o),
(591.023,132.071,c),
(590.046,133.255,o),
(589.773,140.787,o),
(589.816,165.433,c),
(589.87,197.266,l),
(587.66,197.22,l),
(586.444,197.195,o),
(583.316,196.065,o),
(580.71,194.709,c)
);
},
{
attr = {
fillColor = (0,255);
};
closed = 1;
nodes = (
(422.278,191.75,o),
(416.941,188.384,o),
(411.684,182.38,c),
(405.179,174.95,o),
(402.968,168.623,o),
(402.893,157.227,c),
(402.838,148.777,o),
(403.106,147.369,o),
(405.909,141.454,c),
(409.683,133.489,o),
(415.422,127.584,o),
(422.707,124.168,c),
(427.521,121.911,o),
(429.466,121.582,o),
(437.988,121.582,c),
(446.68,121.582,o),
(448.421,121.891,o),
(453.82,124.384,c),
(460.584,127.509,o),
(469.147,135.699,o),
(472.48,142.233,c),
(475.209,147.581,o),
(476.941,158.201,o),
(476.181,164.912,c),
(475.298,172.698,o),
(470.674,181.584,o),
(464.72,186.938,c),
(456.248,194.554,o),
(442.596,197.209,o),
(429.711,193.747,c)
);
},
{
attr = {
fillColor = (0,255);
};
closed = 1;
nodes = (
(447.761,185.38,o),
(450.572,182.222,o),
(453.321,176.258,c),
(455.325,171.911,o),
(455.566,169.916,o),
(455.566,157.715,c),
(455.566,144.477,o),
(455.474,143.857,o),
(452.637,138.184,c),
(447.748,128.406,o),
(441.073,125.662,o),
(433.128,130.162,c),
(425.075,134.722,o),
(420.892,149.812,o),
(422.87,167.157,c),
(424.765,183.765,o),
(432.985,191.675,o),
(443.635,187.138,c)
);
}
);
width = 1000;
}
);
unicode = 72;
},
{
glyphname = I;
lastChange = "2023-01-30 15:53:14 +0000";
layers = (
{
layerId = m01;
shapes = (
{
attr = {
fillColor = (0,255);
};
closed = 1;
nodes = (
(4,614,o),
(12,604,o),
(39,596,c),
(88,579,o),
(96,565,o),
(101,480,c),
(108,363,o),
(102,82,o),
(93,68,c),
(83,54,o),
(58,37,o),
(30,27,c),
(21,24,o),
(12,16,o),
(11,12,c),
(10,3,o),
(27,2,o),
(155,0,c),
(234,-2,o),
(305,-2,o),
(310,1,c),
(330,4,o),
(321,18,o),
(292,27,c),
(275,33,o),
(256,44,o),
(248,55,c),
(233,73,l),
(233,313,l),
(233,554,l),
(252,572,l),
(263,583,o),
(284,594,o),
(297,598,c),
(314,603,o),
(321,608,o),
(321,616,c),
(321,627,o),
(316,628,o),
(170,628,c),
(86,628,o),
(16,626,o),
(14,625,c)
);
}
);
width = 331;
}
);
unicode = 73;
},
{
glyphname = N;
lastChange = "2023-01-30 15:53:14 +0000";
layers = (
{
layerId = m01;
shapes = (
{
attr = {
fillColor = (0,255);
};
closed = 1;
nodes = (
(10,616,o),
(18,607,o),
(42,598,c),
(77,584,o),
(108,550,o),
(113,517,c),
(114,503,o),
(115,406,o),
(114,301,c),
(113,115,o),
(112,110,o),
(99,83,c),
(84,54,o),
(76,47,o),
(36,31,c),
(23,26,o),
(12,18,o),
(11,13,c),
(10,4,o),
(19,2,o),
(154,2,c),
(317,2,o),
(323,5,o),
(256,38,c),
(189,73,o),
(181,100,o),
(175,347,c),
(173,434,o),
(172,506,o),
(172,506,c),
(173,506,o),
(198,474,o),
(228,434,c),
(291,350,o),
(527,56,o),
(565,14,c),
(585,-8,o),
(595,-16,o),
(607,-16,c),
(617,-16,o),
(627,-12,o),
(629,-7,c),
(631,-4,o),
(635,115,o),
(637,258,c),
(640,427,o),
(643,522,o),
(647,535,c),
(657,564,o),
(676,582,o),
(712,598,c),
(767,623,o),
(753,626,o),
(604,628,c),
(529,629,o),
(466,628,o),
(461,624,c),
(450,617,o),
(462,602,o),
(485,598,c),
(511,592,o),
(552,550,o),
(561,521,c),
(570,485,o),
(579,354,o),
(577,265,c),
(575,185,l),
(414,388,l),
(325,499,o),
(246,600,o),
(237,610,c),
(220,630,l),
(121,630,l),
(67,630,o),
(22,628,o),
(19,625,c)
);
}
);
width = 747;
}
);
unicode = 78;
},
{
glyphname = O;
lastChange = "2023-01-30 15:53:14 +0000";
layers = (
{
layerId = m01;
shapes = (
{
attr = {
fillColor = (0,255);
};
closed = 1;
nodes = (
(165,604,o),
(70,517,o),
(38,394,c),
(26,349,o),
(26,259,o),
(38,214,c),
(67,103,o),
(157,13,o),
(267,-16,c),
(312,-28,o),
(409,-28,o),
(453,-16,c),
(532,5,o),
(625,73,o),
(666,143,c),
(753,293,o),
(718,496,o),
(590,581,c),
(536,616,o),
(477,632,o),
(396,635,c),
(357,636,o),
(313,635,o),
(298,631,c)
);
},
{
attr = {
fillColor = (0,255);
};
closed = 1;
nodes = (
(492,558,o),
(532,497,o),
(549,419,c),
(562,353,o),
(556,233,o),
(536,170,c),
(517,108,o),
(480,54,o),
(442,31,c),
(418,16,o),
(409,13,o),
(373,13,c),
(338,13,o),
(326,17,o),
(300,31,c),
(248,59,o),
(210,119,o),
(189,204,c),
(176,254,o),
(177,374,o),
(189,428,c),
(208,508,o),
(255,570,o),
(309,587,c),
(344,599,o),
(411,596,o),
(441,582,c)
);
}
);
width = 743;
}
);
unicode = 79;
},
{
glyphname = P;
lastChange = "2023-01-30 15:53:14 +0000";
layers = (
{
layerId = m01;
shapes = (
{
attr = {
fillColor = (0,255);
};
closed = 1;
nodes = (
(3,616,o),
(11,607,o),
(37,598,c),
(75,582,o),
(90,572,o),
(101,551,c),
(109,535,o),
(110,502,o),
(111,306,c),
(111,79,l),
(93,61,l),
(84,52,o),
(63,38,o),
(47,32,c),
(30,26,o),
(17,18,o),
(17,12,c),
(14,4,o),
(26,2,o),
(176,2,c),
(320,2,o),
(338,4,o),
(336,12,c),
(335,17,o),
(320,26,o),
(302,34,c),
(251,55,o),
(247,64,o),
(245,173,c),
(242,266,l),
(291,266,l),
(415,266,o),
(498,308,o),
(537,388,c),
(575,463,o),
(557,544,o),
(493,587,c),
(440,623,o),
(393,629,o),
(179,629,c),
(90,630,o),
(15,628,o),
(13,625,c)
);
},
{
attr = {
fillColor = (0,255);
};
closed = 1;
nodes = (
(404,542,o),
(410,528,o),
(413,462,c),
(415,386,o),
(408,355,o),
(380,331,c),
(359,312,o),
(330,305,o),
(278,308,c),
(247,310,l),
(245,446,l),
(243,583,l),
(299,582,l),
(343,580,o),
(357,577,o),
(371,568,c)
);
}
);
width = 577;
}
);
unicode = 80;
},
{
glyphname = S;
lastChange = "2023-01-30 15:53:14 +0000";
layers = (
{
layerId = m01;
shapes = (
{
attr = {
fillColor = (0,255);
};
closed = 1;
nodes = (
(386,646,o),
(383,645,o),
(303,642,c),
(201,640,o),
(168,629,o),
(122,584,c),
(87,549,o),
(73,513,o),
(73,464,c),
(73,412,o),
(83,388,o),
(116,354,c),
(141,329,o),
(158,320,o),
(225,291,c),
(270,273,o),
(315,251,o),
(326,243,c),
(356,222,o),
(373,189,o),
(372,146,c),
(372,99,o),
(353,65,o),
(315,47,c),
(224,3,o),
(132,50,o),
(85,162,c),
(63,215,o),
(49,232,o),
(35,226,c),
(26,224,o),
(25,218,o),
(29,189,c),
(30,171,o),
(33,118,o),
(36,71,c),
(39,-24,o),
(41,-26,o),
(78,-7,c),
(101,4,o),
(104,4,o),
(150,-4,c),
(180,-9,o),
(221,-12,o),
(258,-10,c),
(308,-8,o),
(323,-6,o),
(355,10,c),
(403,33,o),
(444,70,o),
(463,106,c),
(481,143,o),
(491,200,o),
(482,234,c),
(468,302,o),
(425,339,o),
(307,383,c),
(228,414,o),
(205,429,o),
(185,458,c),
(174,474,o),
(171,483,o),
(174,512,c),
(180,572,o),
(211,598,o),
(276,598,c),
(336,598,o),
(377,569,o),
(410,504,c),
(425,474,o),
(435,468,o),
(446,482,c),
(453,492,o),
(452,675,o),
(445,678,c),
(441,678,o),
(427,672,o),
(413,663,c)
);
}
);
width = 513;
}
);
unicode = 83;
},
{
glyphname = V;
lastChange = "2023-01-30 15:53:14 +0000";
layers = (
{
layerId = m01;
shapes = (
{
attr = {
fillColor = (0,255);
};
closed = 1;
nodes = (
(-2,620,o),
(5,608,o),
(31,594,c),
(47,587,o),
(64,574,o),
(70,565,c),
(76,557,o),
(135,426,o),
(201,275,c),
(267,124,o),
(323,-5,o),
(325,-10,c),
(329,-14,o),
(339,-18,o),
(348,-18,c),
(366,-18,o),
(366,-19,o),
(495,313,c),
(529,402,o),
(565,492,o),
(576,512,c),
(597,553,o),
(628,587,o),
(659,600,c),
(671,605,o),
(678,612,o),
(678,618,c),
(678,629,o),
(672,630,o),
(562,630,c),
(497,630,o),
(441,628,o),
(436,626,c),
(419,620,o),
(425,608,o),
(450,598,c),
(463,592,o),
(480,578,o),
(489,569,c),
(514,540,o),
(507,505,o),
(441,317,c),
(409,227,o),
(382,157,o),
(381,161,c),
(378,170,o),
(283,395,o),
(250,472,c),
(228,522,o),
(225,558,o),
(240,576,c),
(246,582,o),
(264,593,o),
(281,600,c),
(334,623,o),
(318,626,o),
(162,628,c),
(83,629,o),
(16,628,o),
(12,625,c)
);
}
);
width = 683;
}
);
unicode = 86;
},
{
glyphname = Y;
lastChange = "2023-01-30 15:53:14 +0000";
layers = (
{
layerId = m01;
shapes = (
{
attr = {
fillColor = (0,255);
};
closed = 1;
nodes = (
(3,608,o),
(3,608,o),
(34,591,c),
(69,573,o),
(89,544,o),
(174,396,c),
(247,268,l),
(250,189,l),
(252,93,o),
(247,72,o),
(215,49,c),
(202,39,o),
(184,30,o),
(174,27,c),
(156,24,o),
(141,9,o),
(148,3,c),
(151,-2,o),
(474,1,o),
(479,4,c),
(484,9,o),
(465,22,o),
(437,33,c),
(423,38,o),
(405,49,o),
(396,57,c),
(383,72,o),
(382,76,o),
(381,174,c),
(379,273,l),
(444,388,l),
(533,544,o),
(552,570,o),
(594,591,c),
(654,621,o),
(645,625,o),
(505,625,c),
(395,625,o),
(382,625,o),
(381,615,c),
(379,608,o),
(385,603,o),
(402,600,c),
(431,591,o),
(456,568,o),
(456,549,c),
(456,532,o),
(442,502,o),
(383,398,c),
(346,330,o),
(345,328,o),
(337,342,c),
(306,391,o),
(232,532,o),
(229,544,c),
(226,565,o),
(243,584,o),
(279,600,c),
(329,621,o),
(311,625,o),
(155,627,c),
(28,628,o),
(10,627,o),
(6,619,c)
);
}
);
width = 634;
}
);
unicode = 89;
},
{
glyphname = a;
lastChange = "2023-01-30 15:53:14 +0000";
layers = (
{
layerId = m01;
shapes = (
{
attr = {
fillColor = (0,255);
};
closed = 1;
nodes = (
(143,404,o),
(119,392,o),
(87,362,c),
(31,308,o),
(34,280,o),
(99,280,c),
(118,282,o),
(136,283,o),
(137,285,c),
(140,286,o),
(142,302,o),
(145,319,c),
(147,355,o),
(155,362,o),
(190,368,c),
(221,373,o),
(242,361,o),
(254,332,c),
(263,310,o),
(266,237,o),
(257,225,c),
(255,220,o),
(230,212,o),
(203,206,c),
(89,182,o),
(28,134,o),
(28,68,c),
(28,39,o),
(44,15,o),
(73,1,c),
(116,-20,o),
(169,-12,o),
(227,25,c),
(256,42,l),
(267,20,l),
(277,-2,o),
(278,-2,o),
(316,-4,c),
(344,-5,o),
(363,-2,o),
(387,7,c),
(425,21,o),
(429,32,o),
(401,42,c),
(362,56,o),
(362,54,o),
(362,200,c),
(362,273,o),
(359,342,o),
(356,354,c),
(347,384,o),
(317,409,o),
(280,417,c),
(244,424,o),
(233,424,o),
(193,415,c)
);
},
{
attr = {
fillColor = (0,255);
};
closed = 1;
nodes = (
(262,79,l),
(232,68,l),
(155,43,o),
(99,86,o),
(143,136,c),
(161,156,o),
(212,176,o),
(243,177,c),
(262,177,l),
(262,128,l)
);
}
);
width = 434;
}
);
unicode = 97;
},
{
glyphname = b;
lastChange = "2023-01-30 15:53:14 +0000";
layers = (
{
layerId = m01;
shapes = (
{
attr = {
fillColor = (0,255);
};
closed = 1;
nodes = (
(127,721,o),
(91,708,o),
(64,700,c),
(34,689,o),
(16,680,o),
(16,674,c),
(16,671,o),
(27,661,o),
(39,655,c),
(53,648,o),
(64,637,o),
(65,630,c),
(68,623,o),
(69,487,o),
(70,329,c),
(71,48,o),
(73,40,o),
(83,24,c),
(109,-8,o),
(124,-16,o),
(177,-18,c),
(296,-23,o),
(407,49,o),
(453,162,c),
(476,218,o),
(479,293,o),
(461,341,c),
(446,382,o),
(415,419,o),
(382,433,c),
(337,454,o),
(253,445,o),
(209,415,c),
(193,403,o),
(183,400,o),
(188,407,c),
(189,409,o),
(191,486,o),
(193,576,c),
(194,715,o),
(193,740,o),
(185,742,c),
(181,742,o),
(163,737,o),
(145,728,c)
);
},
{
attr = {
fillColor = (0,255);
};
closed = 1;
nodes = (
(343,342,o),
(370,272,o),
(370,185,c),
(370,137,o),
(368,125,o),
(356,100,c),
(335,60,o),
(303,44,o),
(249,47,c),
(184,50,o),
(185,44,o),
(185,220,c),
(185,367,l),
(199,371,l),
(229,377,o),
(237,377,o),
(260,374,c),
(272,373,o),
(290,368,o),
(299,364,c)
);
}
);
width = 494;
}
);
unicode = 98;
},
{
glyphname = e;
lastChange = "2023-01-30 15:53:14 +0000";
layers = (
{
layerId = m01;
shapes = (
{
attr = {
fillColor = (0,255);
};
closed = 1;
nodes = (
(120,389,o),
(62,333,o),
(43,270,c),
(30,226,o),
(35,142,o),
(53,104,c),
(71,62,o),
(100,29,o),
(136,9,c),
(166,-8,o),
(172,-9,o),
(232,-9,c),
(292,-9,o),
(299,-7,o),
(329,8,c),
(366,28,o),
(404,63,o),
(404,77,c),
(404,90,o),
(396,90,o),
(364,78,c),
(349,74,o),
(319,69,o),
(296,69,c),
(200,69,o),
(136,131,o),
(136,222,c),
(136,245,l),
(274,248,l),
(425,249,o),
(426,250,o),
(419,285,c),
(408,340,o),
(359,401,o),
(312,416,c),
(278,425,o),
(226,423,o),
(184,410,c)
);
},
{
attr = {
fillColor = (0,255);
};
closed = 1;
nodes = (
(295,354,o),
(311,329,o),
(311,309,c),
(311,293,l),
(226,293,l),
(179,293,o),
(142,294,o),
(142,297,c),
(142,308,o),
(167,347,o),
(182,359,c),
(197,372,o),
(206,375,o),
(230,375,c),
(247,375,o),
(266,371,o),
(276,365,c)
);
}
);
width = 447;
}
);
unicode = 101;
},
{
glyphname = g;
lastChange = "2023-01-30 15:53:14 +0000";
layers = (
{
layerId = m01;
shapes = (
{
attr = {
fillColor = (0,255);
};
closed = 1;
nodes = (
(94,393,o),
(46,337,o),
(48,265,c),
(48,222,o),
(56,200,o),
(91,163,c),
(114,138,l),
(91,120,l),
(61,96,o),
(49,62,o),
(63,39,c),
(68,32,o),
(81,20,o),
(92,15,c),
(103,10,o),
(112,4,o),
(114,3,c),
(115,2,o),
(105,-10,o),
(92,-24,c),
(36,-82,o),
(21,-125,o),
(43,-171,c),
(66,-218,o),
(111,-239,o),
(189,-239,c),
(316,-239,o),
(412,-174,o),
(439,-72,c),
(457,-3,o),
(434,50,o),
(376,74,c),
(358,81,o),
(337,82,o),
(249,79,c),
(134,75,o),
(130,76,o),
(142,106,c),
(147,121,o),
(150,121,o),
(194,120,c),
(236,118,o),
(243,120,o),
(277,136,c),
(318,157,o),
(361,196,o),
(379,232,c),
(390,252,o),
(392,266,o),
(392,310,c),
(392,364,l),
(435,364,l),
(470,364,o),
(480,367,o),
(489,376,c),
(496,384,o),
(500,393,o),
(499,398,c),
(498,406,o),
(489,409,o),
(447,410,c),
(421,411,o),
(382,409,o),
(364,405,c),
(337,400,o),
(325,400,o),
(301,408,c),
(267,418,o),
(206,420,o),
(171,411,c)
);
},
{
attr = {
fillColor = (0,255);
};
closed = 1;
nodes = (
(284,349,o),
(297,313,o),
(295,262,c),
(290,196,o),
(261,158,o),
(217,158,c),
(174,158,o),
(148,190,o),
(145,253,c),
(139,328,o),
(166,376,o),
(213,376,c),
(228,376,o),
(246,372,o),
(255,366,c)
);
},
{
attr = {
fillColor = (0,255);
};
closed = 1;
nodes = (
(366,-29,o),
(370,-105,o),
(339,-143,c),
(313,-176,o),
(278,-192,o),
(234,-192,c),
(206,-192,o),
(193,-189,o),
(178,-179,c),
(142,-154,o),
(134,-137,o),
(134,-88,c),
(134,-63,o),
(138,-34,o),
(142,-23,c),
(151,-5,l),
(235,-5,l),
(282,-5,o),
(325,-8,o),
(331,-11,c)
);
}
);
width = 507;
}
);
unicode = 103;
},
{
glyphname = h;
lastChange = "2023-01-30 15:53:14 +0000";
layers = (
{
layerId = m01;
shapes = (
{
attr = {
fillColor = (0,255);
};
closed = 1;
nodes = (
(139,713,o),
(103,699,o),
(71,688,c),
(14,669,o),
(-2,654,o),
(27,647,c),
(34,645,o),
(49,636,o),
(58,627,c),
(74,609,l),
(76,338,l),
(77,71,o),
(77,66,o),
(65,51,c),
(59,42,o),
(44,33,o),
(33,29,c),
(20,24,o),
(13,17,o),
(13,10,c),
(13,0,o),
(20,0,o),
(137,2,c),
(273,3,o),
(284,6,o),
(236,30,c),
(221,38,o),
(206,51,o),
(202,59,c),
(196,69,o),
(195,113,o),
(195,210,c),
(195,346,l),
(215,354,l),
(262,375,o),
(320,357,o),
(343,316,c),
(355,292,o),
(356,282,o),
(357,177,c),
(359,64,l),
(339,44,l),
(328,33,o),
(315,23,o),
(309,23,c),
(304,23,o),
(299,18,o),
(299,12,c),
(299,0,o),
(304,0,o),
(421,0,c),
(532,0,o),
(541,0,o),
(541,11,c),
(541,17,o),
(532,24,o),
(520,29,c),
(508,33,o),
(494,42,o),
(488,51,c),
(477,65,o),
(476,75,o),
(476,184,c),
(476,321,o),
(470,351,o),
(437,387,c),
(411,416,o),
(385,424,o),
(329,424,c),
(284,424,o),
(226,407,o),
(212,389,c),
(208,384,o),
(202,381,o),
(200,381,c),
(196,381,o),
(194,448,o),
(195,550,c),
(195,644,o),
(194,723,o),
(193,726,c),
(187,735,o),
(184,735,o),
(153,720,c)
);
}
);
width = 546;
}
);
unicode = 104;
},
{
glyphname = i;
lastChange = "2023-01-30 15:53:14 +0000";
layers = (
{
layerId = m01;
shapes = (
{
attr = {
fillColor = (0,255);
};
closed = 1;
nodes = (
(51,640,o),
(47,593,o),
(76,559,c),
(104,527,o),
(150,530,o),
(180,566,c),
(192,580,o),
(196,590,o),
(196,616,c),
(196,643,o),
(194,650,o),
(178,665,c),
(155,689,o),
(111,690,o),
(84,667,c)
);
},
{
attr = {
fillColor = (0,255);
};
closed = 1;
nodes = (
(125,419,o),
(92,404,o),
(68,394,c),
(42,384,o),
(21,374,o),
(17,372,c),
(15,368,o),
(23,360,o),
(35,353,c),
(76,326,o),
(75,330,o),
(77,193,c),
(80,73,o),
(78,70,o),
(66,53,c),
(59,43,o),
(44,32,o),
(33,28,c),
(22,23,o),
(14,17,o),
(15,12,c),
(17,7,o),
(50,6,o),
(137,6,c),
(266,6,o),
(282,10,o),
(236,30,c),
(221,37,o),
(207,46,o),
(202,50,c),
(197,58,o),
(195,103,o),
(195,251,c),
(196,442,l),
(183,442,l),
(176,442,o),
(156,434,o),
(141,427,c)
);
}
);
width = 265;
}
);
unicode = 105;
},
{
glyphname = n;
lastChange = "2023-01-30 15:53:14 +0000";
layers = (
{
layerId = m01;
shapes = (
{
attr = {
fillColor = (0,255);
};
closed = 1;
nodes = (
(110,413,o),
(78,398,o),
(62,394,c),
(30,383,o),
(10,368,o),
(22,364,c),
(39,358,o),
(68,334,o),
(75,320,c),
(80,311,o),
(82,270,o),
(82,185,c),
(82,72,o),
(81,64,o),
(70,49,c),
(63,41,o),
(50,30,o),
(40,25,c),
(31,20,o),
(24,12,o),
(24,7,c),
(24,0,o),
(42,-1,o),
(144,-1,c),
(210,-1,o),
(265,1,o),
(266,4,c),
(271,11,o),
(262,19,o),
(242,28,c),
(231,32,o),
(217,42,o),
(211,50,c),
(200,64,o),
(199,74,o),
(199,210,c),
(199,355,l),
(223,362,l),
(273,376,o),
(325,356,o),
(343,317,c),
(355,292,o),
(367,136,o),
(360,85,c),
(356,58,o),
(340,38,o),
(308,19,c),
(302,16,o),
(298,10,o),
(301,6,c),
(304,0,o),
(338,-1,o),
(422,-1,c),
(519,-1,o),
(540,0,o),
(540,7,c),
(540,12,o),
(528,22,o),
(514,29,c),
(476,50,o),
(475,56,o),
(475,192,c),
(475,331,o),
(469,360,o),
(438,391,c),
(411,416,o),
(387,425,o),
(339,426,c),
(301,426,o),
(258,415,o),
(218,395,c),
(200,385,l),
(199,413,l),
(196,449,o),
(187,450,o),
(132,424,c)
);
}
);
width = 548;
}
);
unicode = 110;
},
{
glyphname = o;
lastChange = "2023-01-30 15:53:14 +0000";
layers = (
{
layerId = m01;
shapes = (
{
attr = {
fillColor = (0,255);
};
closed = 1;
nodes = (
(152,409,o),
(120,389,o),
(89,353,c),
(49,308,o),
(36,270,o),
(36,202,c),
(36,151,o),
(37,143,o),
(54,107,c),
(77,59,o),
(110,24,o),
(155,4,c),
(184,-10,o),
(196,-12,o),
(246,-12,c),
(299,-12,o),
(308,-11,o),
(341,5,c),
(382,24,o),
(433,73,o),
(454,112,c),
(469,144,o),
(480,208,o),
(475,248,c),
(470,294,o),
(443,348,o),
(407,380,c),
(356,426,o),
(274,442,o),
(197,421,c)
);
},
{
attr = {
fillColor = (0,255);
};
closed = 1;
nodes = (
(305,371,o),
(322,352,o),
(338,316,c),
(350,290,o),
(352,278,o),
(352,205,c),
(352,125,o),
(352,121,o),
(335,88,c),
(305,29,o),
(265,12,o),
(217,40,c),
(169,67,o),
(144,157,o),
(156,262,c),
(167,361,o),
(216,408,o),
(281,382,c)
);
}
);
width = 510;
}
);
unicode = 111;
},
{
glyphname = p;
lastChange = "2023-01-30 15:53:14 +0000";
layers = (
{
layerId = m01;
shapes = (
{
attr = {
fillColor = (0,255);
};
closed = 1;
nodes = (
(109,415,o),
(75,401,o),
(55,395,c),
(36,388,o),
(20,379,o),
(20,376,c),
(20,372,o),
(31,360,o),
(45,350,c),
(62,338,o),
(70,328,o),
(73,313,c),
(75,304,o),
(75,179,o),
(74,37,c),
(73,-221,l),
(48,-233,l),
(-2,-256,o),
(22,-264,o),
(141,-266,c),
(229,-268,o),
(237,-268,o),
(238,-258,c),
(240,-251,o),
(235,-245,o),
(223,-241,c),
(213,-238,o),
(202,-229,o),
(199,-224,c),
(195,-218,o),
(193,-164,o),
(193,-104,c),
(193,4,l),
(218,-2,l),
(307,-23,o),
(406,36,o),
(458,139,c),
(504,233,o),
(498,323,o),
(441,386,c),
(412,418,o),
(380,433,o),
(336,437,c),
(295,440,o),
(250,428,o),
(216,406,c),
(194,391,l),
(192,416,l),
(190,432,o),
(187,442,o),
(181,443,c),
(176,443,o),
(154,436,o),
(132,425,c)
);
},
{
attr = {
fillColor = (0,255);
};
closed = 1;
nodes = (
(357,330,o),
(376,286,o),
(379,215,c),
(385,97,o),
(349,37,o),
(272,38,c),
(256,38,o),
(231,43,o),
(218,48,c),
(193,59,l),
(193,209,l),
(193,360,l),
(212,367,l),
(243,377,o),
(296,371,o),
(321,354,c)
);
}
);
width = 510;
}
);
unicode = 112;
},
{
glyphname = s;
lastChange = "2023-01-30 15:53:09 +0000";
layers = (
{
layerId = m01;
shapes = (
{
attr = {
fillColor = (0,255);
};
closed = 1;
nodes = (
(124,396,o),
(90,369,o),
(75,339,c),
(60,310,o),
(59,261,o),
(72,234,c),
(84,213,o),
(120,185,o),
(150,176,c),
(188,164,o),
(227,142,o),
(237,128,c),
(266,86,o),
(225,29,o),
(166,29,c),
(130,29,o),
(108,47,o),
(87,94,c),
(68,134,o),
(52,148,o),
(39,136,c),
(35,132,o),
(35,112,o),
(40,75,c),
(47,10,o),
(52,5,o),
(108,-6,c),
(231,-28,o),
(339,35,o),
(339,131,c),
(340,160,o),
(326,195,o),
(306,212,c),
(300,218,o),
(264,237,o),
(227,254,c),
(154,288,o),
(143,299,o),
(149,332,c),
(154,360,o),
(171,372,o),
(208,372,c),
(245,372,o),
(257,363,o),
(281,316,c),
(298,282,o),
(306,275,o),
(321,280,c),
(328,282,o),
(332,388,o),
(324,407,c),
(321,414,o),
(310,416,o),
(252,416,c),
(212,416,o),
(173,412,o),
(158,407,c)
);
}
);
width = 383;
}
);
unicode = 115;
},
{
glyphname = v;
lastChange = "2023-01-30 15:53:14 +0000";
layers = (
{
layerId = m01;
shapes = (
{
attr = {
fillColor = (0,255);
};
closed = 1;
nodes = (
(2,401,o),
(7,388,o),
(25,381,c),
(34,377,o),
(50,365,o),
(59,356,c),
(74,339,o),
(176,140,o),
(227,26,c),
(244,-10,o),
(249,-18,o),
(261,-18,c),
(272,-18,o),
(278,-13,o),
(283,2,c),
(319,90,o),
(423,318,o),
(437,339,c),
(447,353,o),
(465,370,o),
(477,376,c),
(502,388,o),
(507,404,o),
(487,405,c),
(387,408,o),
(325,410,o),
(316,407,c),
(301,402,o),
(304,389,o),
(323,382,c),
(347,374,o),
(365,354,o),
(364,335,c),
(364,316,o),
(299,147,o),
(292,147,c),
(283,146,o),
(194,346,o),
(199,358,c),
(200,365,o),
(211,375,o),
(221,380,c),
(235,386,o),
(242,393,o),
(241,399,c),
(239,406,o),
(223,407,o),
(130,408,c),
(70,410,o),
(19,408,o),
(15,406,c)
);
}
);
width = 507;
}
);
unicode = 118;
},
{
glyphname = y;
lastChange = "2023-01-30 15:53:14 +0000";
layers = (
{
layerId = m01;
shapes = (
{
attr = {
fillColor = (0,255);
};
closed = 1;
nodes = (
(1,403,o),
(6,397,o),
(29,385,c),
(57,371,o),
(66,358,o),
(149,174,c),
(247,-40,o),
(242,-26,o),
(230,-62,c),
(212,-119,o),
(186,-184,o),
(181,-184,c),
(179,-184,o),
(174,-176,o),
(169,-169,c),
(145,-124,o),
(77,-134,o),
(67,-185,c),
(59,-228,o),
(96,-263,o),
(145,-258,c),
(199,-252,o),
(213,-229,o),
(272,-60,c),
(313,55,o),
(390,259,o),
(414,316,c),
(429,350,o),
(455,379,o),
(479,389,c),
(489,394,o),
(497,401,o),
(495,404,c),
(494,409,o),
(468,412,o),
(398,412,c),
(293,412,o),
(278,407,o),
(324,386,c),
(354,373,o),
(366,356,o),
(360,330,c),
(354,295,o),
(290,121,o),
(287,126,c),
(279,134,o),
(193,342,o),
(193,352,c),
(193,362,o),
(215,383,o),
(235,391,c),
(245,394,o),
(252,401,o),
(252,406,c),
(252,413,o),
(235,414,o),
(132,414,c),
(67,414,o),
(12,413,o),
(9,410,c)
);
}
);
width = 500;
}
);
unicode = 121;
},
